<svg width="40" height="40" viewBox="0 0 40 40" fill="none" xmlns="http://www.w3.org/2000/svg">
<path d="M0 6C0 2.68629 2.68629 0 6 0H34C37.3137 0 40 2.68629 40 6V34C40 37.3137 37.3137 40 34 40H6C2.68629 40 0 37.3137 0 34V6Z" fill="#25293C" fill-opacity="0.16"/>
<g clip-path="url(#clip0_162_2156)">
<path d="M31.75 13.305H26.725V8.25H13.275V13.305H8.25V31.75H13.275H13.775H16.135H23.865H26.225H26.725H31.75V13.305ZM9.25 30.75V14.305H13.275V30.75H9.25ZM17.135 30.75V26.21H22.865V30.75H17.135ZM25.725 30.75H23.865V25.21H16.135V30.75H14.275V9.25H25.725V30.75ZM30.75 30.75H26.725V14.305H30.75V30.75Z" fill="#25293C"/>
<path d="M16.6553 10.79H15.6553V12.715H16.6553V10.79Z" fill="#25293C"/>
<path d="M16.6553 14.405H15.6553V16.33H16.6553V14.405Z" fill="#25293C"/>
<path d="M16.6553 18.02H15.6553V19.945H16.6553V18.02Z" fill="#25293C"/>
<path d="M16.6553 21.64H15.6553V23.565H16.6553V21.64Z" fill="#25293C"/>
<path d="M19.2197 10.79H18.2197V12.715H19.2197V10.79Z" fill="#25293C"/>
<path d="M19.2197 14.405H18.2197V16.33H19.2197V14.405Z" fill="#25293C"/>
<path d="M19.2197 18.02H18.2197V19.945H19.2197V18.02Z" fill="#25293C"/>
<path d="M19.2197 21.64H18.2197V23.565H19.2197V21.64Z" fill="#25293C"/>
<path d="M21.7803 10.79H20.7803V12.715H21.7803V10.79Z" fill="#25293C"/>
<path d="M21.7803 14.405H20.7803V16.33H21.7803V14.405Z" fill="#25293C"/>
<path d="M21.7803 18.02H20.7803V19.945H21.7803V18.02Z" fill="#25293C"/>
<path d="M21.7803 21.64H20.7803V23.565H21.7803V21.64Z" fill="#25293C"/>
<path d="M24.3447 10.79H23.3447V12.715H24.3447V10.79Z" fill="#25293C"/>
<path d="M24.3447 14.405H23.3447V16.33H24.3447V14.405Z" fill="#25293C"/>
<path d="M24.3447 18.02H23.3447V19.945H24.3447V18.02Z" fill="#25293C"/>
<path d="M24.3447 21.64H23.3447V23.565H24.3447V21.64Z" fill="#25293C"/>
<path d="M11.7598 16.14H10.7598V18.065H11.7598V16.14Z" fill="#25293C"/>
<path d="M11.7598 19.755H10.7598V21.68H11.7598V19.755Z" fill="#25293C"/>
<path d="M11.7598 23.375H10.7598V25.3H11.7598V23.375Z" fill="#25293C"/>
<path d="M11.7598 26.99H10.7598V28.915H11.7598V26.99Z" fill="#25293C"/>
<path d="M29.2402 16.14H28.2402V18.065H29.2402V16.14Z" fill="#25293C"/>
<path d="M29.2402 19.755H28.2402V21.68H29.2402V19.755Z" fill="#25293C"/>
<path d="M29.2402 23.375H28.2402V25.3H29.2402V23.375Z" fill="#25293C"/>
<path d="M29.2402 26.99H28.2402V28.915H29.2402V26.99Z" fill="#25293C"/>
</g>
<defs>
<clipPath id="clip0_162_2156">
<rect width="24" height="24" fill="white" transform="translate(8 8)"/>
</clipPath>
</defs>
</svg>
