<svg width="41" height="40" viewBox="0 0 41 40" fill="none" xmlns="http://www.w3.org/2000/svg">
<path d="M0.666992 6C0.666992 2.68629 3.35328 0 6.66699 0H34.667C37.9807 0 40.667 2.68629 40.667 6V34C40.667 37.3137 37.9807 40 34.667 40H6.66699C3.35328 40 0.666992 37.3137 0.666992 34V6Z" fill="#28C76F" fill-opacity="0.16"/>
<g clip-path="url(#clip0_159_1426)">
<path d="M32.417 13.305H27.392V8.25H13.942V13.305H8.91699V31.75H13.942H14.442H16.802H24.532H26.892H27.392H32.417V13.305ZM9.91699 30.75V14.305H13.942V30.75H9.91699ZM17.802 30.75V26.21H23.532V30.75H17.802ZM26.392 30.75H24.532V25.21H16.802V30.75H14.942V9.25H26.392V30.75ZM31.417 30.75H27.392V14.305H31.417V30.75Z" fill="#28C76F"/>
<path d="M17.3223 10.79H16.3223V12.715H17.3223V10.79Z" fill="#28C76F"/>
<path d="M17.3223 14.405H16.3223V16.33H17.3223V14.405Z" fill="#28C76F"/>
<path d="M17.3223 18.02H16.3223V19.945H17.3223V18.02Z" fill="#28C76F"/>
<path d="M17.3223 21.64H16.3223V23.565H17.3223V21.64Z" fill="#28C76F"/>
<path d="M19.8867 10.79H18.8867V12.715H19.8867V10.79Z" fill="#28C76F"/>
<path d="M19.8867 14.405H18.8867V16.33H19.8867V14.405Z" fill="#28C76F"/>
<path d="M19.8867 18.02H18.8867V19.945H19.8867V18.02Z" fill="#28C76F"/>
<path d="M19.8867 21.64H18.8867V23.565H19.8867V21.64Z" fill="#28C76F"/>
<path d="M22.4473 10.79H21.4473V12.715H22.4473V10.79Z" fill="#28C76F"/>
<path d="M22.4473 14.405H21.4473V16.33H22.4473V14.405Z" fill="#28C76F"/>
<path d="M22.4473 18.02H21.4473V19.945H22.4473V18.02Z" fill="#28C76F"/>
<path d="M22.4473 21.64H21.4473V23.565H22.4473V21.64Z" fill="#28C76F"/>
<path d="M25.0117 10.79H24.0117V12.715H25.0117V10.79Z" fill="#28C76F"/>
<path d="M25.0117 14.405H24.0117V16.33H25.0117V14.405Z" fill="#28C76F"/>
<path d="M25.0117 18.02H24.0117V19.945H25.0117V18.02Z" fill="#28C76F"/>
<path d="M25.0117 21.64H24.0117V23.565H25.0117V21.64Z" fill="#28C76F"/>
<path d="M12.4268 16.14H11.4268V18.065H12.4268V16.14Z" fill="#28C76F"/>
<path d="M12.4268 19.755H11.4268V21.68H12.4268V19.755Z" fill="#28C76F"/>
<path d="M12.4268 23.375H11.4268V25.3H12.4268V23.375Z" fill="#28C76F"/>
<path d="M12.4268 26.99H11.4268V28.915H12.4268V26.99Z" fill="#28C76F"/>
<path d="M29.9072 16.14H28.9072V18.065H29.9072V16.14Z" fill="#28C76F"/>
<path d="M29.9072 19.755H28.9072V21.68H29.9072V19.755Z" fill="#28C76F"/>
<path d="M29.9072 23.375H28.9072V25.3H29.9072V23.375Z" fill="#28C76F"/>
<path d="M29.9072 26.99H28.9072V28.915H29.9072V26.99Z" fill="#28C76F"/>
</g>
<defs>
<clipPath id="clip0_159_1426">
<rect width="24" height="24" fill="white" transform="translate(8.66699 8)"/>
</clipPath>
</defs>
</svg>
