<svg width="22" height="22" viewBox="0 0 22 22" fill="none" xmlns="http://www.w3.org/2000/svg">
<path d="M6.87492 15.5833C6.87492 17.3525 3.66659 21.5417 3.66659 21.5417C3.66659 21.5417 0.458252 17.3525 0.458252 15.5833C0.458252 14.7324 0.796272 13.9164 1.39795 13.3147C1.99963 12.713 2.81568 12.375 3.66659 12.375C4.51749 12.375 5.33354 12.713 5.93522 13.3147C6.5369 13.9164 6.87492 14.7324 6.87492 15.5833Z" stroke="#CECCE2" stroke-linecap="round" stroke-linejoin="round"/>
<path d="M3.66659 16.0417C3.91972 16.0417 4.12492 15.8365 4.12492 15.5833C4.12492 15.3302 3.91972 15.125 3.66659 15.125C3.41345 15.125 3.20825 15.3302 3.20825 15.5833C3.20825 15.8365 3.41345 16.0417 3.66659 16.0417Z" stroke="#CECCE2" stroke-linecap="round" stroke-linejoin="round"/>
<path d="M11.4582 3.66668C11.4582 5.43584 8.24984 9.62501 8.24984 9.62501C8.24984 9.62501 5.0415 5.43584 5.0415 3.66668C5.0415 3.24535 5.12449 2.82815 5.28572 2.4389C5.44696 2.04965 5.68328 1.69596 5.9812 1.39804C6.27912 1.10012 6.63281 0.863797 7.02206 0.702563C7.41131 0.54133 7.82851 0.458344 8.24984 0.458344C8.67116 0.458344 9.08836 0.54133 9.47761 0.702563C9.86687 0.863797 10.2205 1.10012 10.5185 1.39804C10.8164 1.69596 11.0527 2.04965 11.214 2.4389C11.3752 2.82815 11.4582 3.24535 11.4582 3.66668Z" stroke="#CECCE2" stroke-linecap="round" stroke-linejoin="round"/>
<path d="M8.24984 4.12501C8.50297 4.12501 8.70817 3.91981 8.70817 3.66668C8.70817 3.41355 8.50297 3.20834 8.24984 3.20834C7.99671 3.20834 7.7915 3.41355 7.7915 3.66668C7.7915 3.91981 7.99671 4.12501 8.24984 4.12501Z" stroke="#CECCE2" stroke-linecap="round" stroke-linejoin="round"/>
<path d="M21.5417 8.25002C21.5417 10.0192 18.3333 14.2084 18.3333 14.2084C18.3333 14.2084 15.125 10.0192 15.125 8.25002C15.125 7.39912 15.463 6.58307 16.0647 5.98139C16.6664 5.37971 17.4824 5.04169 18.3333 5.04169C19.1842 5.04169 20.0003 5.37971 20.602 5.98139C21.2036 6.58307 21.5417 7.39912 21.5417 8.25002Z" stroke="#CECCE2" stroke-linecap="round" stroke-linejoin="round"/>
<path d="M18.3333 8.70835C18.5865 8.70835 18.7917 8.50315 18.7917 8.25002C18.7917 7.99689 18.5865 7.79169 18.3333 7.79169C18.0802 7.79169 17.875 7.99689 17.875 8.25002C17.875 8.50315 18.0802 8.70835 18.3333 8.70835Z" stroke="#CECCE2" stroke-linecap="round" stroke-linejoin="round"/>
<path d="M3.6665 21.5417L4.48234 21.1292" stroke="#CECCE2" stroke-linecap="round" stroke-linejoin="round"/>
<path d="M5.93066 20.405L16.7932 14.9783" stroke="#CECCE2" stroke-linecap="round" stroke-linejoin="round" stroke-dasharray="1.76 1.76"/>
<path d="M17.5174 14.6209L18.3332 14.2084L17.499 13.8325" stroke="#CECCE2" stroke-linecap="round" stroke-linejoin="round"/>
<path d="M15.8125 13.0625L9.92749 10.3858" stroke="#CECCE2" stroke-linecap="round" stroke-linejoin="round" stroke-dasharray="2.02 2.02"/>
<path d="M9.08417 10.0008L8.25 9.625" stroke="#CECCE2" stroke-linecap="round" stroke-linejoin="round"/>
</svg>
