<svg width="40" height="40" viewBox="0 0 40 40" fill="none" xmlns="http://www.w3.org/2000/svg">
<path d="M0 6C0 2.68629 2.68629 0 6 0H34C37.3137 0 40 2.68629 40 6V34C40 37.3137 37.3137 40 34 40H6C2.68629 40 0 37.3137 0 34V6Z" fill="#25293C" fill-opacity="0.16"/>
<path d="M24.7 16C24.2928 14.8446 23.2239 14.0528 22 14H18C16.3431 14 15 15.3431 15 17C15 18.6569 16.3431 20 18 20H22C23.6569 20 25 21.3431 25 23C25 24.6569 23.6569 26 22 26H18C16.7761 25.9472 15.7072 25.1554 15.3 24" stroke="#25293C" stroke-width="1.5" stroke-linecap="round" stroke-linejoin="round"/>
<path d="M20.75 11C20.75 10.5858 20.4142 10.25 20 10.25C19.5858 10.25 19.25 10.5858 19.25 11H20.75ZM19.25 14C19.25 14.4142 19.5858 14.75 20 14.75C20.4142 14.75 20.75 14.4142 20.75 14H19.25ZM20.75 26C20.75 25.5858 20.4142 25.25 20 25.25C19.5858 25.25 19.25 25.5858 19.25 26H20.75ZM19.25 29C19.25 29.4142 19.5858 29.75 20 29.75C20.4142 29.75 20.75 29.4142 20.75 29H19.25ZM19.25 11V14H20.75V11H19.25ZM19.25 26V29H20.75V26H19.25Z" fill="#25293C"/>
</svg>
