<svg width="22" height="22" viewBox="0 0 22 22" fill="none" xmlns="http://www.w3.org/2000/svg">
<g clip-path="url(#clip0_4_9776)">
<path d="M0.97437 21.551H19.7327C19.9797 21.551 20.1817 21.349 20.1817 21.102V15.9702L20.8731 16.5898L21.4703 15.9208L14.5425 9.74285C14.4615 9.66962 14.3563 9.6287 14.2471 9.62787C14.1378 9.62704 14.0321 9.66636 13.9499 9.73836V4.35509C13.9499 4.10816 13.7478 3.90612 13.5009 3.90612H11.5254V2.50979C11.5254 2.3302 11.4176 2.16407 11.2515 2.09673L7.41274 0.484891C7.30049 0.439993 7.17478 0.439993 7.06702 0.484891L3.22376 2.09673C3.05764 2.16407 2.94988 2.3302 2.94988 2.50979V3.90612H0.97437C0.727431 3.90612 0.525391 4.10816 0.525391 4.35509V21.102C0.525391 21.349 0.722942 21.551 0.97437 21.551ZM12.9936 20.6531V17.4294H15.4899V20.6531H12.9936ZM19.2882 15.171V20.6531H16.3878V16.9804C16.3878 16.7335 16.1858 16.5314 15.9389 16.5314H12.5446C12.2976 16.5314 12.0956 16.7335 12.0956 16.9804V20.6531H9.19968V15.171L14.2417 10.6767L19.2882 15.171ZM3.84784 2.80612L7.23764 1.38285L10.6274 2.80612V3.90612H3.84784V2.80612ZM1.42335 4.80407H13.0564V10.5375L9.41519 13.7837H3.39886V14.6816H8.40498L7.01315 15.9208L7.61029 16.5898L8.30172 15.9702V16.7828H3.39886V17.6808H8.30172V20.6531H1.42335V4.80407Z" fill="#E1DEF5"/>
<path d="M3.39868 7.77632H11.0807V8.67428H3.39868V7.77632ZM3.39868 10.78H11.0807V11.678H3.39868V10.78Z" fill="#E1DEF5"/>
</g>
<defs>
<clipPath id="clip0_4_9776">
<rect width="22" height="22" fill="white"/>
</clipPath>
</defs>
</svg>
