<svg width="39" height="37" viewBox="0 0 39 37" fill="none" xmlns="http://www.w3.org/2000/svg">
<path d="M0.666748 5.99999C0.666748 2.68629 3.35304 0 6.66675 0H32.0137C35.3274 0 38.0137 2.68629 38.0137 6V30.8313C38.0137 34.145 35.3274 36.8313 32.0137 36.8313H6.66675C3.35304 36.8313 0.666748 34.145 0.666748 30.8313V5.99999Z" fill="#00BAD1" fill-opacity="0.16"/>
<path d="M24.6855 10.3375V9.89061C24.6855 9.30623 25.1668 8.82498 25.7512 8.82498H26.5074C27.0918 8.82498 27.573 9.30623 27.573 9.89061V13.2594" stroke="#00BAD1" stroke-miterlimit="10" stroke-linecap="round" stroke-linejoin="round"/>
<path d="M28.0544 20.3406V28.8312H10.6606V20.3406" stroke="#00BAD1" stroke-miterlimit="10" stroke-linecap="round" stroke-linejoin="round"/>
<path d="M25.8886 20.2031V23.3312C25.8886 23.5375 25.7167 23.675 25.5449 23.675H22.4167C22.2105 23.675 22.073 23.5031 22.073 23.3312V20.2031C22.073 19.9969 22.2449 19.8594 22.4167 19.8594H25.5449C25.7167 19.825 25.8886 19.9969 25.8886 20.2031ZM28.1917 18.8281L19.598 10.2344C19.4605 10.0969 19.2199 10.0969 19.0824 10.2344L10.4886 18.8281C10.0761 19.2406 9.38862 19.2406 8.97612 18.8281C8.56362 18.4156 8.56362 17.7281 8.97612 17.3156L17.5699 8.72187C18.5324 7.75937 20.1136 7.75937 21.1105 8.72187L29.7042 17.3156C30.1167 17.7281 30.1167 18.4156 29.7042 18.8281C29.2917 19.2406 28.6042 19.2406 28.1917 18.8281Z" stroke="#00BAD1" stroke-miterlimit="10" stroke-linecap="round" stroke-linejoin="round"/>
<path d="M8.70117 28.8312H30.0137" stroke="#00BAD1" stroke-miterlimit="10" stroke-linecap="round" stroke-linejoin="round"/>
<path d="M21.5231 28.4188V28.8313H12.8606V28.4188C12.8606 27.8344 13.3418 27.3531 13.9262 27.3531H20.4575C21.0418 27.3531 21.5231 27.8344 21.5231 28.4188ZM20.1825 20.65V27.3531H14.1668V20.65C14.1668 20.0656 14.6481 19.5844 15.2325 19.5844H19.1168C19.7012 19.5844 20.1825 20.0656 20.1825 20.65Z" stroke="#00BAD1" stroke-miterlimit="10" stroke-linecap="round" stroke-linejoin="round"/>
<path d="M16.5387 23.4687C16.5387 23.8125 16.2637 24.1219 15.8855 24.1219C15.5418 24.1219 15.2324 23.8469 15.2324 23.4687C15.2324 23.125 15.5074 22.8156 15.8855 22.8156C16.2637 22.8156 16.5387 23.0906 16.5387 23.4687Z" stroke="#00BAD1" stroke-miterlimit="10" stroke-linecap="round" stroke-linejoin="round"/>
</svg>
