<svg width="312" height="203" viewBox="0 0 312 203" fill="none" xmlns="http://www.w3.org/2000/svg">
<path d="M0 6C0 2.68629 2.68629 0 6 0H306C309.314 0 312 2.68629 312 6V197C312 200.314 309.314 203 306 203H6C2.6863 203 0 200.314 0 197V6Z" fill="#D5D7E1"/>
<g clip-path="url(#clip0_162_2252)">
<path fill-rule="evenodd" clip-rule="evenodd" d="M116.8 60.6667C116.8 60.2335 116.972 59.818 117.278 59.5117C117.585 59.2054 118 59.0333 118.433 59.0333H164.166C164.6 59.0333 165.015 59.2054 165.321 59.5117C165.628 59.818 165.8 60.2335 165.8 60.6667V85.1667L162.533 88.4333V62.3H120.066V150.5H116.8V60.6667ZM159.266 116.2C159.266 115.767 159.439 115.351 159.745 115.045C160.051 114.739 160.467 114.567 160.9 114.567H177.233C177.666 114.567 178.082 114.739 178.388 115.045C178.694 115.351 178.866 115.767 178.866 116.2V150.5H159.266V116.2Z" fill="#565A6A"/>
<path fill-rule="evenodd" clip-rule="evenodd" d="M173.967 108.033C174.4 108.033 174.815 107.861 175.122 107.555C175.428 107.249 175.6 106.833 175.6 106.4C175.6 105.967 175.428 105.551 175.122 105.245C174.815 104.939 174.4 104.767 173.967 104.767H164.167C163.733 104.767 163.318 104.939 163.012 105.245C162.705 105.551 162.533 105.967 162.533 106.4C162.533 106.833 162.705 107.249 163.012 107.555C163.318 107.861 163.733 108.033 164.167 108.033H173.967ZM200.1 150.5C200.533 150.5 200.949 150.328 201.255 150.022C201.561 149.715 201.733 149.3 201.733 148.867C201.733 148.433 201.561 148.018 201.255 147.712C200.949 147.405 200.533 147.233 200.1 147.233H111.9C111.467 147.233 111.051 147.405 110.745 147.712C110.439 148.018 110.267 148.433 110.267 148.867C110.267 149.3 110.439 149.715 110.745 150.022C111.051 150.328 111.467 150.5 111.9 150.5H200.1Z" fill="#565A6A"/>
<path fill-rule="evenodd" clip-rule="evenodd" d="M156 90.0667C156 89.6335 155.828 89.2181 155.522 88.9117C155.215 88.6054 154.8 88.4333 154.367 88.4333H147.833C147.4 88.4333 146.985 88.6054 146.678 88.9117C146.372 89.2181 146.2 89.6335 146.2 90.0667V101.5L156 91.7V90.0667Z" fill="#565A6A"/>
<path fill-rule="evenodd" clip-rule="evenodd" d="M126.6 70.4667V80.2667C126.6 80.6999 126.772 81.1153 127.078 81.4216C127.384 81.7279 127.8 81.9 128.233 81.9H134.766C135.199 81.9 135.615 81.7279 135.921 81.4216C136.228 81.1153 136.4 80.6999 136.4 80.2667V70.4667C136.4 70.0335 136.228 69.618 135.921 69.3117C135.615 69.0054 135.199 68.8333 134.766 68.8333H128.233C127.8 68.8333 127.384 69.0054 127.078 69.3117C126.772 69.618 126.6 70.0335 126.6 70.4667ZM126.6 90.0667V99.8667C126.6 100.3 126.772 100.715 127.078 101.022C127.384 101.328 127.8 101.5 128.233 101.5H134.766C135.199 101.5 135.615 101.328 135.921 101.022C136.228 100.715 136.4 100.3 136.4 99.8667V90.0667C136.4 89.6335 136.228 89.218 135.921 88.9117C135.615 88.6054 135.199 88.4333 134.766 88.4333H128.233C127.8 88.4333 127.384 88.6054 127.078 88.9117C126.772 89.218 126.6 89.6335 126.6 90.0667ZM126.6 109.667V119.467C126.6 119.9 126.772 120.315 127.078 120.622C127.384 120.928 127.8 121.1 128.233 121.1H134.766C135.199 121.1 135.615 120.928 135.921 120.622C136.228 120.315 136.4 119.9 136.4 119.467V109.667C136.4 109.233 136.228 108.818 135.921 108.512C135.615 108.205 135.199 108.033 134.766 108.033H128.233C127.8 108.033 127.384 108.205 127.078 108.512C126.772 108.818 126.6 109.233 126.6 109.667ZM126.6 129.267V139.067C126.6 139.5 126.772 139.915 127.078 140.222C127.384 140.528 127.8 140.7 128.233 140.7H134.766C135.199 140.7 135.615 140.528 135.921 140.222C136.228 139.915 136.4 139.5 136.4 139.067V129.267C136.4 128.833 136.228 128.418 135.921 128.112C135.615 127.805 135.199 127.633 134.766 127.633H128.233C127.8 127.633 127.384 127.805 127.078 128.112C126.772 128.418 126.6 128.833 126.6 129.267ZM146.2 70.4667V80.2667C146.2 80.6999 146.372 81.1153 146.678 81.4216C146.984 81.7279 147.4 81.9 147.833 81.9H154.366C154.799 81.9 155.215 81.7279 155.521 81.4216C155.828 81.1153 156 80.6999 156 80.2667V70.4667C156 70.0335 155.828 69.618 155.521 69.3117C155.215 69.0054 154.799 68.8333 154.366 68.8333H147.833C147.4 68.8333 146.984 69.0054 146.678 69.3117C146.372 69.618 146.2 70.0335 146.2 70.4667ZM146.2 102.833L169.066 84.0331L191.933 102.833V150.5H195.2V102.153C195.2 101.913 195.147 101.676 195.044 101.458C194.942 101.241 194.793 101.049 194.608 100.896L170.108 80.6423C169.815 80.3996 169.447 80.2667 169.066 80.2667C168.686 80.2667 168.317 80.3996 168.024 80.6423L143.524 100.896C143.339 101.049 143.19 101.241 143.088 101.458C142.986 101.676 142.933 101.913 142.933 102.153V150.5H146.2V102.833Z" fill="#565A6A"/>
</g>
<defs>
<clipPath id="clip0_162_2252">
<rect width="98" height="98" fill="white" transform="translate(107 52.5)"/>
</clipPath>
</defs>
</svg>
