<svg width="182" height="30" viewBox="0 0 182 30" fill="none" xmlns="http://www.w3.org/2000/svg">
<g clip-path="url(#clip0_2_9673)">
<g filter="url(#filter0_d_2_9673)">
<path d="M7.78947 18.5568V19.2309C7.13433 19.2168 6.4937 19.2091 5.95271 19.2091C5.95271 21.412 5.95271 23.6308 5.97614 24.1187C5.85418 24.112 5.6865 24.112 5.56491 24.112C5.45895 24.112 5.29089 24.112 5.16893 24.1187C5.19124 23.6374 5.19124 21.4197 5.19124 19.2087C4.64988 19.2087 4.00925 19.2165 3.34668 19.2309V18.5568H7.78947Z" fill="#637E90"/>
</g>
<g filter="url(#filter1_d_2_9673)">
<path d="M13.9544 18.5568C13.9243 19.2831 13.9243 20.1586 13.9243 21.3379C13.9243 22.5173 13.9321 23.3176 13.9548 24.1187H13.1082C13.1394 23.4746 13.1472 22.3318 13.1472 21.7014C12.6586 21.694 12.0489 21.694 11.4859 21.694C10.9368 21.694 10.3277 21.694 9.83212 21.7014C9.83212 22.3307 9.8403 23.4746 9.86261 24.1187H9.03198C9.06173 23.3176 9.05541 22.5169 9.05541 21.3379C9.05541 20.1589 9.07028 19.2831 9.03198 18.5568H9.86298C9.84067 19.1421 9.83249 20.337 9.83249 20.9974C10.3281 21.0037 10.9372 21.0037 11.4863 21.0037C12.0492 21.0037 12.659 21.0037 13.1476 20.9974C13.1476 20.337 13.1398 19.1424 13.1085 18.5568H13.9544Z" fill="#637E90"/>
</g>
<g filter="url(#filter2_d_2_9673)">
<path d="M20.0582 18.8681C20.0582 18.9792 20.0508 19.1421 20.0582 19.2161C18.8312 19.2102 17.5366 19.2017 16.5762 19.2017L16.5691 21.0188C17.7496 21.0188 18.9993 21.0188 19.9898 21.0033C19.9823 21.1514 19.9823 21.4845 19.9823 21.6422C19.0156 21.627 17.734 21.62 16.5691 21.62V23.4583C17.544 23.4583 18.8624 23.452 20.0578 23.4379C20.0504 23.5268 20.0578 23.6741 20.0578 23.7925V24.1198H15.782C15.8058 23.4298 15.8058 22.5243 15.8058 21.3379C15.8058 20.1582 15.8058 19.1883 15.782 18.5568H20.0578L20.0582 18.8681Z" fill="#637E90"/>
</g>
<g filter="url(#filter3_d_2_9673)">
<path d="M28.0997 22.6439C28.0997 22.072 27.7342 21.7555 26.3321 21.5756C24.7549 21.3761 24.2213 20.863 24.2213 19.959C24.2213 19.0099 24.9828 18.4606 26.424 18.4606C28.0228 18.4606 28.7009 19.0477 28.7009 20.0479C28.7009 20.1959 28.7009 20.2937 28.6946 20.4406C28.6028 20.4406 28.4715 20.4343 28.3355 20.4343C28.1994 20.4343 28.054 20.4406 27.97 20.4406C27.9781 20.3296 27.9781 20.2033 27.9781 20.1223C27.9781 19.4771 27.5286 19.0858 26.4083 19.0858C25.4558 19.0858 24.9906 19.3753 24.9906 19.9531C24.9906 20.4277 25.22 20.7986 26.6679 20.9833C28.2667 21.2054 28.8393 21.6811 28.8393 22.6232C28.8393 23.6467 28.0696 24.2171 26.5604 24.2171C24.8925 24.2171 24.1221 23.6315 24.1221 22.5632C24.1221 22.4299 24.1295 22.3341 24.1377 22.2004C24.2588 22.2164 24.381 22.224 24.5032 22.223C24.6631 22.223 24.8006 22.2149 24.9066 22.2075C24.8988 22.2889 24.8921 22.3777 24.8921 22.4377C24.8921 23.2088 25.4097 23.5949 26.5519 23.5949C27.6502 23.5949 28.0993 23.2617 28.0993 22.6454" fill="#637E90"/>
</g>
<g filter="url(#filter4_d_2_9673)">
<path d="M34.7845 21.3246C34.7845 19.8554 34.0375 19.1369 32.8328 19.1369C31.6282 19.1369 30.8752 19.8506 30.8752 21.3246C30.8752 22.7986 31.6222 23.5416 32.8339 23.5416C34.0457 23.5416 34.7845 22.7949 34.7845 21.3246ZM32.8328 24.2245C31.1415 24.2245 30.0896 23.1781 30.0896 21.3002C30.0896 19.4167 31.1872 18.4532 32.8328 18.4532C34.4785 18.4532 35.5768 19.4156 35.5768 21.3002C35.5768 23.1762 34.5168 24.2245 32.8328 24.2245Z" fill="#637E90"/>
</g>
<g filter="url(#filter5_d_2_9673)">
<path d="M41.7929 18.5568C41.2515 19.758 39.8576 23.2813 39.5683 24.1187C39.4159 24.112 39.2247 24.112 39.0195 24.112C38.7455 24.112 38.57 24.1187 38.4484 24.1187C38.1205 23.2514 36.7868 19.8247 36.1934 18.5568H37.1445C37.3121 19.1565 38.0903 21.064 38.5622 22.3326C38.7853 22.896 38.928 23.2743 39.0199 23.556C39.1192 23.2739 39.2556 22.8812 39.4846 22.2948C39.9576 21.0362 40.6953 19.1354 40.8867 18.5561L41.7929 18.5568Z" fill="#637E90"/>
</g>
<g filter="url(#filter6_d_2_9673)">
<path d="M47.1524 18.8681C47.1524 18.9792 47.145 19.1421 47.1524 19.2161C45.9254 19.2102 44.6304 19.2017 43.67 19.2017L43.6633 21.0188C44.8442 21.0188 46.0939 21.0188 47.084 21.0033C47.0766 21.1514 47.0766 21.4845 47.0766 21.6422C46.1098 21.627 44.8282 21.62 43.6633 21.62V23.4583C44.6382 23.4583 45.9567 23.452 47.1524 23.4379C47.145 23.5268 47.1524 23.6741 47.1524 23.7925V24.1198H42.8784C42.9007 23.4298 42.9007 22.5243 42.9007 21.3379C42.9007 20.1582 42.9007 19.1883 42.8784 18.5568H47.1524V18.8681Z" fill="#637E90"/>
</g>
<g filter="url(#filter7_d_2_9673)">
<path d="M51.3677 21.4353C52.2363 21.4353 52.6791 20.9744 52.6791 20.3148C52.6791 19.4841 52.2664 19.172 51.2313 19.172C50.9182 19.172 50.0876 19.1794 49.6615 19.2017C49.6537 19.9583 49.6537 20.7149 49.6537 21.4194C49.9195 21.4271 50.6204 21.4353 51.3677 21.4353ZM52.0463 21.7977C52.8312 21.8943 53.0825 22.1094 53.3878 22.9474C53.5117 23.3455 53.6564 23.7368 53.8213 24.1198H53.0985C52.9245 24.1198 52.8929 24.0524 52.8011 23.7263C52.3664 22.347 52.2366 22.0209 51.3603 22.0209H49.6544C49.6622 22.8808 49.6767 23.623 49.715 24.1198H48.8777C48.8922 23.3117 48.9078 22.5247 48.9078 21.3387C48.9078 20.1526 48.8922 19.3575 48.8777 18.5568H51.3982C52.7021 18.5568 53.4331 19.0695 53.4331 20.2185C53.4331 21.0858 52.9914 21.613 52.047 21.7673L52.0463 21.7977Z" fill="#637E90"/>
</g>
<g filter="url(#filter8_d_2_9673)">
<path d="M59.4692 18.8681C59.4692 18.9792 59.4618 19.1421 59.4692 19.2161C58.2422 19.2102 56.9472 19.2017 55.9868 19.2017L55.979 21.0188C57.161 21.0188 58.4107 21.0188 59.3997 21.0033C59.3919 21.1514 59.3919 21.4845 59.3919 21.6422C58.4252 21.627 57.1439 21.62 55.9775 21.62V23.4583C56.9535 23.4583 58.2716 23.452 59.4677 23.4379C59.4603 23.5268 59.4677 23.6741 59.4677 23.7925V24.1198H55.1919C55.2157 23.4298 55.2157 22.5243 55.2157 21.3379C55.2157 20.1582 55.2157 19.1883 55.1919 18.5568H59.4677L59.4692 18.8681Z" fill="#637E90"/>
</g>
<g filter="url(#filter9_d_2_9673)">
<path d="M61.1921 24.1187C61.2078 23.3184 61.2144 22.5251 61.2144 21.3379C61.2144 20.1508 61.2081 19.3501 61.1921 18.5568H62.015C61.9845 19.3423 61.9927 20.1367 61.9927 21.3379C61.9927 22.5088 61.9927 23.3102 62.015 24.1187H61.1921Z" fill="#637E90"/>
</g>
<g filter="url(#filter10_d_2_9673)">
<path d="M66.25 24.2164C64.5661 24.2164 63.5358 23.1551 63.5283 21.2865C63.5283 19.4167 64.5582 18.4609 66.2723 18.4609C67.9495 18.4609 68.6344 19.2916 68.6344 20.3C68.6344 20.411 68.6344 20.4776 68.627 20.5894C68.5366 20.582 68.3991 20.582 68.2552 20.582C68.0942 20.582 67.9577 20.582 67.8584 20.5894C67.8659 20.5154 67.8659 20.4251 67.8659 20.3673C67.8659 19.567 67.3554 19.1143 66.2582 19.1143C65.1007 19.1132 64.3199 19.7292 64.3199 21.302C64.3199 22.8438 65.0825 23.5704 66.2708 23.5704C67.4911 23.5704 67.9399 23.0892 67.8722 21.7248C67.3372 21.7248 66.4166 21.7314 65.9514 21.7392C65.958 21.6676 65.9606 21.5957 65.9592 21.5238C65.9592 21.3827 65.9592 21.2787 65.9514 21.1832C66.3928 21.198 66.836 21.198 67.1635 21.198C67.5353 21.198 68.1228 21.198 68.6188 21.1899C68.7631 23.2077 68.276 24.2164 66.2489 24.2164" fill="#637E90"/>
</g>
<path d="M75.1221 18.559C75.1147 19.2046 75.1065 20.1526 75.1065 21.332C75.1065 22.5569 75.1065 23.3865 75.1147 24.1209H74.2993C73.9647 23.5494 72.6842 21.7847 71.678 20.4125C71.4379 20.0627 71.219 19.6989 71.0225 19.3231L71.0069 19.3301C71.037 19.7825 71.0526 20.2352 71.0605 20.6435C71.0605 22.4229 71.0604 23.64 71.0831 24.1213H70.3376C70.344 23.4024 70.3521 22.5273 70.3521 21.3405C70.3521 20.1611 70.3521 19.2191 70.3376 18.5594H71.2969C71.5788 19.034 72.9426 20.8512 73.865 22.1634C74.0864 22.4883 74.2852 22.828 74.4599 23.1799L74.4822 23.1718C74.4451 22.7498 74.4298 22.3348 74.4298 21.9502C74.422 20.6302 74.4064 19.1169 74.3763 18.5613L75.1221 18.559Z" fill="#637E90"/>
<g filter="url(#filter11_d_2_9673)">
<path d="M83.908 18.5568C83.908 18.6386 83.9006 18.7641 83.9006 18.8685C83.9006 18.9951 83.908 19.1276 83.908 19.2387C82.6584 19.2257 81.4232 19.2257 80.4335 19.2257V21.3964C81.6378 21.3964 82.8339 21.3964 83.8541 21.3742C83.8482 21.553 83.8482 21.8647 83.8482 22.0279C82.8335 22.0202 81.6218 22.0135 80.4335 22.0135C80.4416 22.7624 80.4494 23.6075 80.4706 24.1187H79.6404C79.656 23.3698 79.6642 22.5247 79.6642 21.3379C79.6642 20.1586 79.6642 19.3049 79.6404 18.5568H83.908Z" fill="#637E90"/>
</g>
<g filter="url(#filter12_d_2_9673)">
<path d="M90.243 18.5568C90.227 19.001 90.2207 19.4452 90.2207 20.1141C90.2207 20.5954 90.2348 21.3013 90.2348 21.9313C90.2348 23.3842 89.5031 24.2153 87.85 24.2153C86.1969 24.2153 85.4578 23.3842 85.4578 21.9313C85.4578 21.302 85.4723 20.5957 85.4723 20.1141C85.4723 19.4478 85.4652 18.9947 85.4492 18.5568H86.272C86.2423 19.2761 86.2267 21.0336 86.2267 21.8884C86.2267 23.0311 86.7896 23.5345 87.8627 23.5345C88.9227 23.5345 89.4637 23.0311 89.4637 21.8806C89.4637 21.0355 89.4484 19.2627 89.4265 18.5583L90.243 18.5568Z" fill="#637E90"/>
</g>
<g filter="url(#filter13_d_2_9673)">
<path d="M96.9476 18.5568C96.9401 19.2024 96.9319 20.1504 96.9319 21.3298C96.9319 22.5547 96.932 23.3842 96.9401 24.1187H96.1247C95.7901 23.5471 94.5092 21.7825 93.5035 20.4103C93.2634 20.0605 93.0446 19.6967 92.8483 19.3208L92.8327 19.3279C92.8636 19.7802 92.8781 20.233 92.8863 20.6413C92.8863 22.4207 92.8863 23.6378 92.9101 24.119H92.1631C92.169 23.4002 92.1772 22.5251 92.1772 21.3383C92.1772 20.1589 92.1772 19.2168 92.1631 18.5572H93.122C93.4046 19.0317 94.7676 20.8489 95.6901 22.1612C95.9114 22.4862 96.1101 22.8258 96.285 23.1777L96.3073 23.1695C96.2701 22.7475 96.2549 22.3326 96.2549 21.948C96.2467 20.6279 96.2311 19.1147 96.201 18.559L96.9476 18.5568Z" fill="#637E90"/>
</g>
<g filter="url(#filter14_d_2_9673)">
<path d="M102.933 21.3013C102.933 19.7284 102.264 19.2168 100.928 19.2168C100.465 19.2168 100.038 19.2242 99.6483 19.239C99.6338 19.8469 99.6256 20.6257 99.6256 21.3598C99.6256 22.4125 99.6256 22.9841 99.6412 23.4364C100.083 23.4587 100.419 23.4587 100.898 23.4587C102.254 23.4587 102.933 22.8949 102.933 21.3009M100.943 18.5564C102.78 18.5564 103.709 19.3049 103.709 21.2772C103.709 23.2495 102.817 24.1183 100.927 24.1183H98.8325C98.8559 23.3617 98.8559 22.5243 98.8559 21.3453C98.8559 20.1663 98.8559 19.2165 98.8325 18.5564H100.943Z" fill="#637E90"/>
</g>
<g filter="url(#filter15_d_2_9673)">
<path d="M112.224 21.3246C112.224 19.8554 111.477 19.1369 110.274 19.1369C109.07 19.1369 108.315 19.8495 108.315 21.3246C108.315 22.7997 109.062 23.5416 110.274 23.5416C111.486 23.5416 112.224 22.7949 112.224 21.3246ZM110.274 24.2245C108.582 24.2245 107.53 23.1781 107.53 21.3002C107.53 19.4167 108.628 18.4532 110.274 18.4532C111.92 18.4532 113.017 19.4156 113.017 21.3002C113.017 23.1762 111.957 24.2245 110.274 24.2245Z" fill="#637E90"/>
</g>
<g filter="url(#filter16_d_2_9673)">
<path d="M118.761 18.5568C118.761 18.6386 118.753 18.7641 118.753 18.8685C118.753 18.9951 118.761 19.1276 118.761 19.2387C117.511 19.2257 116.277 19.2257 115.286 19.2257V21.3964C116.49 21.3964 117.687 21.3964 118.707 21.3742C118.701 21.553 118.701 21.8647 118.701 22.0279C117.687 22.0202 116.475 22.0135 115.286 22.0135C115.294 22.7624 115.302 23.6075 115.323 24.1187H114.493C114.508 23.3698 114.516 22.5247 114.516 21.3379C114.516 20.1586 114.516 19.3049 114.493 18.5568H118.761Z" fill="#637E90"/>
</g>
<g filter="url(#filter17_d_2_9673)">
<path d="M127.168 18.8681C127.168 18.9792 127.16 19.1421 127.168 19.2161C125.941 19.2102 124.645 19.2017 123.685 19.2017L123.677 21.0188C124.859 21.0188 126.109 21.0188 127.098 21.0033C127.09 21.1514 127.09 21.4845 127.09 21.6422C126.123 21.627 124.842 21.62 123.675 21.62V23.4583C124.652 23.4583 125.97 23.452 127.166 23.4379C127.158 23.5268 127.166 23.6741 127.166 23.7925V24.1198H122.89C122.914 23.4298 122.914 22.5243 122.914 21.3379C122.914 20.1582 122.914 19.1883 122.89 18.5568H127.166L127.168 18.8681Z" fill="#637E90"/>
</g>
<g filter="url(#filter18_d_2_9673)">
<path d="M131.198 24.2164C129.514 24.2164 128.486 23.1551 128.478 21.2865C128.478 19.4167 129.507 18.4609 131.222 18.4609C132.897 18.4609 133.583 19.2916 133.583 20.3C133.583 20.411 133.583 20.4776 133.577 20.5894C133.484 20.582 133.347 20.582 133.205 20.582C133.043 20.582 132.907 20.582 132.808 20.5894C132.815 20.5154 132.815 20.4251 132.815 20.3673C132.815 19.567 132.306 19.1143 131.208 19.1143C130.049 19.1143 129.274 19.7303 129.274 21.3031C129.274 22.8449 130.035 23.5716 131.225 23.5716C132.444 23.5716 132.892 23.0903 132.824 21.7259C132.29 21.7259 131.368 21.7325 130.903 21.7403C130.909 21.6687 130.912 21.5968 130.91 21.5249C130.91 21.3838 130.91 21.2798 130.903 21.1843C131.345 21.1991 131.787 21.1991 132.115 21.1991C132.487 21.1991 133.075 21.1991 133.57 21.191C133.714 23.2088 133.227 24.2175 131.2 24.2175" fill="#637E90"/>
</g>
<g filter="url(#filter19_d_2_9673)">
<path d="M139.33 18.5568C138.805 19.3342 137.545 21.6052 137.136 22.3618C137.136 23.0959 137.144 23.8895 137.152 24.1187H136.344C136.359 23.8892 136.368 23.1103 136.368 22.3759C135.986 21.6115 134.69 19.2831 134.165 18.5568H135.161C135.297 18.8829 135.907 19.9812 136.266 20.6997C136.442 21.0484 136.623 21.4031 136.737 21.6574H136.807C136.921 21.4197 137.081 21.0781 137.264 20.7379C137.63 20.0175 138.277 18.8681 138.407 18.5568H139.33Z" fill="#637E90"/>
</g>
<g filter="url(#filter20_d_2_9673)">
<path d="M144.078 20.5147C144.078 19.5874 143.537 19.2091 142.508 19.2091C142.219 19.2091 141.488 19.2168 141.106 19.225V21.7529C141.334 21.7603 141.875 21.7684 142.432 21.7684C143.552 21.7684 144.078 21.4268 144.078 20.5147ZM142.638 18.5568C143.986 18.5568 144.841 19.098 144.841 20.5228C144.841 21.8554 143.948 22.4203 142.584 22.4203C142.074 22.4203 141.807 22.4203 141.114 22.4062C141.122 23.0803 141.128 23.6648 141.16 24.1187H140.298C140.33 23.3176 140.33 22.5247 140.33 21.3379C140.33 20.1586 140.33 19.2986 140.298 18.5568H142.638Z" fill="#637E90"/>
</g>
<g filter="url(#filter21_d_2_9673)">
<path d="M150.031 18.5568V19.2309C149.375 19.2168 148.735 19.2087 148.193 19.2087C148.193 21.412 148.193 23.6297 148.217 24.1187C148.095 24.112 147.927 24.112 147.806 24.112C147.699 24.112 147.531 24.112 147.409 24.1187C147.432 23.6374 147.432 21.4197 147.432 19.2087C146.891 19.2087 146.25 19.2165 145.587 19.2309V18.5568H150.031Z" fill="#637E90"/>
</g>
<path d="M131.054 6.57281C131.211 6.57419 131.362 6.51367 131.474 6.40444C131.587 6.29522 131.651 6.14616 131.654 5.98978C131.652 5.83328 131.587 5.68399 131.475 5.57453C131.362 5.46508 131.211 5.40436 131.054 5.40565C130.976 5.40477 130.899 5.41918 130.826 5.44807C130.754 5.47696 130.688 5.51976 130.633 5.57401C130.577 5.62826 130.533 5.69291 130.502 5.76425C130.471 5.83559 130.455 5.91223 130.455 5.98978C130.455 6.06733 130.471 6.14398 130.502 6.21534C130.532 6.2867 130.577 6.35137 130.632 6.40566C130.688 6.45995 130.754 6.50278 130.826 6.53172C130.898 6.56065 130.976 6.57512 131.054 6.57429" fill="white"/>
<path d="M77.8493 4.88814L77.8534 4.62051H74.9287V5.14615H77.2473C77.0986 5.53891 76.6019 6.22225 74.9287 6.22225V6.74827C77.7865 6.74827 77.8493 4.90739 77.8493 4.88814Z" fill="white"/>
<path d="M64.6243 7.14732L64.6086 7.42347H65.272L65.2679 7.15583C65.2638 6.82601 65.3493 5.8828 65.7984 5.50078C65.886 5.42735 65.9891 5.37464 66.1001 5.34662C66.2111 5.3186 66.327 5.316 66.4391 5.33902L66.5164 4.82077C66.3269 4.78614 66.1321 4.79395 65.946 4.84363C65.76 4.89332 65.5874 4.98364 65.4408 5.10803C65.2508 5.27807 65.1018 5.48846 65.0046 5.72363C64.9488 5.53586 64.8517 5.36286 64.7202 5.21723C64.6497 5.14269 64.5647 5.08329 64.4703 5.04268C64.3759 5.00207 64.2742 4.9811 64.1714 4.98106V5.50708C64.201 5.50695 64.2302 5.51324 64.2572 5.52551C64.2841 5.53779 64.308 5.55575 64.3272 5.57815C64.5919 5.84912 64.6495 6.68423 64.6246 7.14843" fill="white"/>
<path d="M88.1895 5.89835C88.5784 5.89835 88.7885 6.91855 88.8119 7.4701L88.8249 7.72034H89.4354L89.454 7.47788C89.4931 6.97962 89.7251 5.6011 90.3267 5.21501C90.4154 5.15923 90.5163 5.12548 90.6208 5.11659C90.7254 5.1077 90.8306 5.12393 90.9275 5.16392L91.1034 4.66863C90.9281 4.60189 90.7396 4.57681 90.5528 4.59539C90.3661 4.61396 90.1863 4.67567 90.0277 4.77561C89.5673 5.14897 89.25 5.66887 89.1294 6.24779C88.9629 5.77878 88.652 5.34235 88.1702 5.37418H87.8062V5.9002H88.1809C88.1836 5.9002 88.1862 5.9002 88.1888 5.9002" fill="white"/>
<path d="M140.556 5.09285C140.612 5.09216 140.666 5.11346 140.706 5.15209C140.746 5.19073 140.769 5.24356 140.77 5.29904C140.769 5.35481 140.746 5.40802 140.706 5.44711C140.666 5.4862 140.612 5.50802 140.556 5.50782C140.5 5.50782 140.447 5.48592 140.407 5.44685C140.367 5.40778 140.344 5.35468 140.344 5.29904C140.345 5.24369 140.367 5.19097 140.407 5.15236C140.447 5.11374 140.501 5.09235 140.556 5.09285ZM139.36 6.52024C139.495 6.5058 140.707 6.35884 141.144 5.81025C141.257 5.66318 141.315 5.48146 141.308 5.29645C141.308 5.26128 141.296 5.17133 141.296 5.17133C141.263 5.0004 141.171 4.84644 141.035 4.73616C140.9 4.62587 140.73 4.56623 140.556 4.56757C140.358 4.5654 140.168 4.64128 140.027 4.77851C139.886 4.91575 139.806 5.10312 139.804 5.29941C139.804 5.40204 139.827 5.5034 139.869 5.59673C139.912 5.69006 139.975 5.7732 140.052 5.8406C139.807 5.91505 139.555 5.96794 139.3 5.99867L139.36 6.52024Z" fill="white"/>
<path d="M112.097 6.05123H105.546V6.75271H112.097V6.05123Z" fill="white"/>
<g filter="url(#filter22_d_2_9673)">
<path d="M149.025 10.4463C148.869 10.9529 148.554 11.3965 148.127 11.7124C147.699 12.0282 147.182 12.1998 146.649 12.202H138.28V9.15588C139.308 9.09184 140.56 8.58952 141.876 8.06128C144.072 7.17952 146.561 6.18339 148.08 7.29983C148.557 7.6528 148.907 8.14985 149.077 8.71688C149.248 9.2839 149.229 9.89053 149.025 10.4463ZM148.514 6.74198C146.664 5.37974 143.978 6.45991 141.601 7.41384C140.198 7.97873 138.876 8.49771 137.942 8.45884H137.023V9.15773H137.561V9.44055C137.554 9.95213 137.555 10.7858 137.559 12.1591C137.239 12.1052 136.947 11.9424 136.734 11.6985C136.521 11.4546 136.399 11.1446 136.389 10.8213V10.1335H135.675V11.0142C135.656 11.353 135.506 11.6715 135.257 11.9026C135.007 12.1337 134.677 12.2595 134.337 12.2535H134.044C134.044 11.8285 134.065 7.12437 134.067 6.39549H133.346L133.324 10.2109C133.239 10.7817 132.95 11.3028 132.51 11.6782C132.07 12.0537 131.508 12.2581 130.929 12.2539H130.234C129.97 12.2548 129.71 12.1857 129.481 12.0536C129.253 11.9216 129.063 11.7313 128.933 11.5024L128.784 11.2392C128.865 10.1511 128.837 9.05771 128.701 7.97503C128.32 6.20078 127.054 6.05383 125.679 6.05383H123.953V6.75715H125.679C127.107 6.75715 127.745 6.94631 127.998 8.1205C128.13 8.72833 128.136 10.2194 128.011 12.2542H123.276V11.3843H122.556V12.9516H128.719C128.719 12.9516 128.724 12.3986 128.725 12.3649C129.138 12.7419 129.677 12.9513 130.237 12.9516H130.929C131.384 12.953 131.833 12.8568 132.246 12.6696C132.66 12.4825 133.028 12.2087 133.326 11.867C133.339 11.863 133.321 12.9531 133.321 12.9531H134.337C134.697 12.9544 135.051 12.8591 135.361 12.6774C135.671 12.4957 135.926 12.2342 136.1 11.9203C136.409 12.4021 136.893 12.7468 137.45 12.8828C137.524 12.8974 137.599 12.9042 137.674 12.9032H146.65C147.333 12.9062 147.999 12.6905 148.55 12.288C149.101 11.8855 149.507 11.3175 149.708 10.6677C149.964 9.9728 149.985 9.21414 149.77 8.50597C149.555 7.79779 149.114 7.17845 148.514 6.74124" fill="white"/>
</g>
<g filter="url(#filter23_d_2_9673)">
<path d="M118.331 6.84933C118.834 6.84778 119.328 6.98222 119.76 7.23831C120.192 7.49439 120.546 7.86251 120.785 8.30337C120.983 8.76457 121.085 9.26072 121.086 9.76223C121.021 10.4435 120.702 11.0758 120.192 11.5341C119.681 11.9925 119.017 12.2436 118.329 12.238C117.604 12.2453 116.905 11.9657 116.386 11.4605C115.867 10.9553 115.571 10.2659 115.562 9.54345C115.571 8.82111 115.867 8.13182 116.386 7.62676C116.905 7.1217 117.604 6.84212 118.329 6.84933M118.329 12.9383C118.94 12.9386 119.541 12.7808 120.072 12.4804C119.549 13.0641 118.904 13.5255 118.181 13.8318C117.459 14.1381 116.677 14.2816 115.893 14.2521C115.826 14.2521 115.761 14.2547 115.693 14.2569L109.819 14.2624V14.9628H115.526C115.593 14.9628 115.658 14.9602 115.724 14.9572L115.894 14.9524C118.112 14.9524 119.984 14.014 121.034 12.3775C121.512 11.5511 121.779 10.6202 121.812 9.66672C121.802 9.01339 121.633 8.37225 121.318 7.79883C121.003 7.29275 120.563 6.8754 120.04 6.58654C119.517 6.29767 118.929 6.1469 118.33 6.14859C117.416 6.13921 116.535 6.49134 115.881 7.12772C115.228 7.7641 114.854 8.63276 114.843 9.54308C114.854 10.4534 115.228 11.3221 115.881 11.9586C116.535 12.595 117.416 12.9472 118.33 12.9379" fill="white"/>
</g>
<g filter="url(#filter24_d_2_9673)">
<path d="M108.62 10.0428C108.627 9.46368 108.865 8.91108 109.281 8.50618C109.697 8.10128 110.257 7.87712 110.839 7.88285C111.421 7.87712 111.981 8.10124 112.397 8.50611C112.813 8.91098 113.051 9.46358 113.059 10.0428C113.051 10.622 112.813 11.1745 112.397 11.5793C111.981 11.984 111.421 12.208 110.839 12.202C110.257 12.2081 109.697 11.9841 109.281 11.5793C108.865 11.1745 108.627 10.6219 108.62 10.0428ZM105.22 12.9035H110.939V12.8983C111.692 12.8813 112.408 12.5741 112.938 12.0414C113.467 11.5087 113.768 10.7922 113.777 10.0428C113.768 9.27609 113.453 8.54447 112.902 8.0083C112.352 7.47214 111.61 7.17517 110.84 7.18248C110.07 7.17517 109.328 7.47214 108.778 8.0083C108.227 8.54447 107.912 9.27609 107.903 10.0428C107.904 10.4547 107.995 10.8614 108.171 11.2344C108.347 11.6073 108.602 11.9376 108.919 12.202H105.222C104.447 12.2102 103.701 11.912 103.146 11.3728C102.592 10.8336 102.275 10.0974 102.265 9.32579V6.72124H103.169V6.02013H101.544V9.32579C101.556 10.2854 101.951 11.2009 102.64 11.8716C103.33 12.5424 104.258 12.9136 105.222 12.9039" fill="white"/>
</g>
<g filter="url(#filter25_d_2_9673)">
<path d="M81.3792 7.59522C83.1092 6.80897 84.2529 6.28851 85.571 7.18803C86.0628 7.49094 86.4352 7.95275 86.626 8.49623C86.8167 9.03971 86.8143 9.63192 86.6192 10.1739C86.2511 11.3047 85.2829 12.1909 84.4125 12.1946H76.0206V9.13478C78.2835 9.00151 79.9931 8.22378 81.3792 7.59374M95.1318 6.74234C96.6934 6.74234 98.0104 7.82658 98.0104 9.34466C97.9818 10.0859 97.671 10.7886 97.141 11.31C96.611 11.8314 95.9016 12.1325 95.1567 12.1521C94.7767 12.1769 93.9067 12.1691 92.7994 12.1587L92.3209 12.155C92.3045 11.7178 92.3235 10.9546 92.3369 10.4189C92.3447 10.061 92.3525 9.74297 92.3525 9.54345C92.3486 8.80537 92.6391 8.09591 93.1601 7.57082C93.6811 7.04573 94.3901 6.7479 95.1314 6.74271M86.0183 12.8957C87.8945 12.8957 90.4235 11.4713 91.3449 10.1342L91.6174 9.73742C91.6145 9.91992 91.62 12.8654 91.6174 12.868C91.6148 12.8706 95.0009 12.8809 95.2062 12.868C96.1332 12.8364 97.0133 12.4546 97.6677 11.8001C98.322 11.1457 98.7016 10.2677 98.7291 9.34466C98.7291 7.4416 97.0894 6.04308 95.1318 6.04308C93.7609 6.04308 92.7329 6.75419 91.9993 7.92838L90.7515 9.73742C90.2314 10.4863 89.5384 11.1 88.7307 11.5269C87.923 11.9539 87.0242 12.1818 86.1098 12.1913C86.6659 11.7091 87.079 11.0847 87.3044 10.3856C87.5468 9.70121 87.5482 8.95513 87.3085 8.26982C87.0688 7.58452 86.6021 7.00072 85.9852 6.61426C84.3262 5.48079 82.8185 6.17005 81.0747 6.96038C79.606 7.62669 77.9425 8.38332 75.6544 8.44995H74.6914V9.15069H75.3004V12.1806C75.1463 12.1513 74.9985 12.0952 74.8639 12.0147C74.4921 11.7967 73.9861 11.4017 73.9861 11.0286C73.9861 10.557 73.9917 10.0754 73.9917 10.0754H73.2774V12.1824H72.0991V7.9195H71.0287C70.5453 7.9195 70.0133 7.9195 69.6225 8.32262C69.2949 8.6591 69.131 8.94599 69.1365 9.72928L69.1391 10.1365C69.1469 11.4217 68.6428 12.2305 67.7582 13.0912C67.0024 13.8387 65.9818 14.2604 64.9165 14.2654H63.6545L63.6311 14.9687H64.9075C66.1664 14.9654 67.3735 14.4692 68.268 13.5872C69.2871 12.5963 69.8668 11.6061 69.8582 10.1346L69.8556 9.72742C69.8519 9.16106 69.9434 9.00114 70.1308 8.81939C70.3915 8.64151 70.7113 8.57107 71.0231 8.62283L71.3808 8.62542V12.8857H73.9972V12.215C74.1417 12.3742 74.31 12.5102 74.4962 12.6181C74.7536 12.7405 75.0238 12.8341 75.3019 12.8972L86.0183 12.8957Z" fill="white"/>
</g>
<path d="M7.07028 5.13246C7.00633 5.24351 6.44972 6.24742 7.08961 6.65017C7.17124 6.70272 7.26644 6.7305 7.36364 6.73013C7.41597 6.72978 7.46801 6.72231 7.51831 6.70792C7.79662 6.58124 8.02649 6.36861 8.17382 6.10157C8.24897 6.19789 8.34367 6.27735 8.45175 6.33475C8.55984 6.39216 8.67886 6.42623 8.80107 6.43473C8.90929 6.45234 9.02014 6.44479 9.12495 6.41269C9.22976 6.38058 9.3257 6.32478 9.40526 6.24964C9.7979 5.87947 9.73246 5.09248 9.72316 5.00364L9.18626 5.05324C9.22941 5.33665 9.17391 5.62623 9.02899 5.87392C9.0072 5.89261 8.98136 5.90602 8.95349 5.91309C8.92562 5.92015 8.89648 5.92068 8.86837 5.91464C8.67948 5.89132 8.62446 5.81432 8.6081 5.78804C8.54062 5.65864 8.52392 5.50887 8.56125 5.36789L8.05112 5.20131C7.90839 5.5836 7.68104 5.929 7.38595 6.21189C7.24057 6.12119 7.37963 5.6718 7.54137 5.38936L7.07028 5.13246Z" fill="white"/>
<path d="M42.6271 5.00327L42.0902 5.05472C42.1324 5.33777 42.0766 5.62672 41.9318 5.87392C41.9107 5.89302 41.8852 5.90668 41.8576 5.91372C41.83 5.92075 41.8011 5.92094 41.7734 5.91426C41.723 5.91473 41.6732 5.9037 41.6277 5.88201C41.5823 5.86032 41.5424 5.82855 41.5112 5.78915C41.4436 5.65982 41.4267 5.51002 41.464 5.369L40.9558 5.20057C40.8121 5.58361 40.5833 5.92934 40.2865 6.21188C40.1437 6.12119 40.2828 5.6718 40.4438 5.38973L39.9731 5.13061C39.9076 5.24425 39.3521 6.24668 39.9928 6.65165C40.0745 6.70381 40.1697 6.73144 40.2668 6.73124C40.3193 6.73115 40.3714 6.72316 40.4215 6.70755C40.7002 6.58168 40.9302 6.36882 41.0766 6.1012C41.1521 6.19714 41.2469 6.27634 41.3549 6.3337C41.4629 6.39107 41.5818 6.42536 41.7038 6.43436C41.8118 6.45153 41.9223 6.44377 42.0268 6.41168C42.1313 6.37959 42.227 6.32402 42.3066 6.24927C42.6996 5.8791 42.6352 5.091 42.6263 5.00179" fill="white"/>
<g filter="url(#filter26_d_2_9673)">
<path d="M19.4387 10.1924C19.0026 10.1578 18.569 10.0968 18.1403 10.0099C17.219 9.80109 16.7999 9.41389 16.7423 8.71426C16.6937 8.44102 16.7035 8.16065 16.771 7.89143C16.8385 7.6222 16.9623 7.37017 17.1342 7.15175C17.4867 6.78158 18.079 6.59982 18.9475 6.59982H20.7609V8.31225H21.48V5.90057H18.9472C17.8689 5.90057 17.1011 6.15413 16.6047 6.67793C16.3624 6.96518 16.1851 7.30105 16.0849 7.66267C15.9847 8.02428 15.9639 8.40316 16.024 8.77349C16.1496 10.2757 17.5242 10.5899 17.9764 10.6932C18.4342 10.7862 18.8972 10.852 19.3629 10.8905C20.3861 10.9934 21.0085 11.0834 21.0085 11.4576V12.0654H7.83406C6.89662 12.0646 5.99662 11.6991 5.32619 11.0467C4.9704 10.7056 4.68658 10.2972 4.49134 9.84541C4.2961 9.39366 4.19338 8.90767 4.18918 8.4159V6.60205H4.94619V5.90279H3.46973V8.41664C3.47453 9.00151 3.59644 9.57956 3.82831 10.117C4.06019 10.6544 4.39737 11.1403 4.82015 11.5465C5.61648 12.3246 6.68664 12.7623 7.80246 12.7662H21.7302V11.458C21.7302 10.4252 20.5668 10.3079 19.4398 10.1927" fill="white"/>
</g>
<g filter="url(#filter27_d_2_9673)">
<path d="M13.9626 13.7105H5.37036V14.4109H13.9626V13.7105Z" fill="white"/>
</g>
<path d="M35.6587 13.7112H31.3181V14.4116H35.6587V13.7112Z" fill="white"/>
<path d="M39.5032 7.00739L39.5162 7.53155H42.3144L42.3014 7.00739H39.5032Z" fill="white"/>
<path d="M61.555 4.57349H60.8359V12.7703H61.555V4.57349Z" fill="white"/>
<g filter="url(#filter28_d_2_9673)">
<path d="M59.4371 10.5825C59.4321 10.9803 59.2688 11.3599 58.983 11.6379C58.6972 11.9159 58.3123 12.0697 57.9127 12.0654H56.0261V6.8149H54.8977C54.1344 6.8149 52.9245 7.37016 51.2487 8.14123C47.9693 9.65339 43.0469 11.9207 37.215 12.0114V6.25149H36.4963V9.71336C36.4882 10.344 36.2292 10.9458 35.7762 11.3867C35.3232 11.8276 34.713 12.0717 34.0795 12.0654H30.8656V4.57275H30.1458V12.7666H34.0792C34.5389 12.7678 34.9934 12.6691 35.4109 12.4773C35.8283 12.2855 36.1986 12.0052 36.4959 11.656V12.7151H36.8551C43.0053 12.7151 48.1515 10.346 51.5573 8.77608C53.0877 8.07275 54.2968 7.51489 54.8981 7.51489H55.3071V12.7666H57.9146C58.5027 12.7724 59.0691 12.5457 59.4896 12.1363C59.91 11.7268 60.1502 11.168 60.1573 10.5825V4.57275H59.4383L59.4371 10.5825Z" fill="white"/>
</g>
<g filter="url(#filter29_d_2_9673)">
<path d="M25.9624 5.90131H24.0197V6.60464H25.9624C27.3619 6.60464 28.0279 6.80194 28.2829 7.97687C28.4651 8.82531 28.3606 10.7398 28.3026 11.7708C28.2974 11.8818 28.2922 11.9847 28.2881 12.0743H23.5594V11.1963H22.8403V12.7751H28.9942V12.4249C28.9942 12.3209 29.0072 12.1002 29.0236 11.8071C29.0808 10.7447 29.1883 8.77163 28.9864 7.8325C28.6012 6.05123 27.2816 5.90279 25.9621 5.90279" fill="white"/>
</g>
<path d="M165.287 18.4443V17.9631H164.804C164.616 17.856 164.403 17.7989 164.186 17.7972C163.97 17.7988 163.757 17.8559 163.569 17.9631H163.084V18.4465C162.976 18.6338 162.919 18.8454 162.917 19.061C162.919 19.2766 162.976 19.4882 163.084 19.6755V20.1567H163.569C163.757 20.2644 163.97 20.3215 164.186 20.3225C164.403 20.3215 164.616 20.2643 164.804 20.1567H165.287V19.6755C165.395 19.4879 165.452 19.2757 165.453 19.0595C165.452 18.8433 165.395 18.6311 165.287 18.4435" fill="white"/>
<path d="M165.287 12.7928H164.804C164.616 12.6852 164.403 12.628 164.186 12.627C163.97 12.628 163.757 12.6852 163.569 12.7928H163.084V13.2741C162.976 13.4614 162.919 13.6729 162.917 13.8886C162.919 14.1042 162.976 14.3157 163.084 14.503V14.9865H163.569C163.757 15.0931 163.97 15.1499 164.186 15.1516C164.403 15.1501 164.616 15.0932 164.804 14.9865H165.287V14.5053C165.395 14.3177 165.452 14.1055 165.453 13.8893C165.452 13.6736 165.395 13.4619 165.287 13.2748V12.7928Z" fill="white"/>
<path d="M169.32 12.7928H168.834C168.646 12.6852 168.433 12.628 168.216 12.627C168 12.6281 167.787 12.6853 167.599 12.7928H167.114V13.2741C167.006 13.4614 166.949 13.673 166.948 13.8886C166.949 14.1041 167.006 14.3157 167.114 14.503V14.9865H167.599C167.787 15.0931 168 15.15 168.216 15.1516C168.433 15.1501 168.645 15.0932 168.834 14.9865H169.317V14.5053C169.425 14.3179 169.483 14.1056 169.484 13.8893C169.483 13.6731 169.425 13.461 169.317 13.2737L169.32 12.7928Z" fill="white"/>
<path d="M169.32 17.963H168.834C168.646 17.8554 168.433 17.7983 168.216 17.7972C168 17.7983 167.787 17.8555 167.599 17.963H167.114V18.4443C167.006 18.6316 166.949 18.8432 166.948 19.0588C166.949 19.2745 167.006 19.4861 167.114 19.6736V20.1571H167.599C167.787 20.2637 168 20.3206 168.216 20.3222C168.433 20.3207 168.645 20.2638 168.834 20.1571H169.317V19.6758C169.425 19.4884 169.483 19.2762 169.484 19.0599C169.483 18.8436 169.425 18.6314 169.317 18.4439L169.32 17.963Z" fill="white"/>
<path d="M165.287 7.64187H164.804C164.616 7.5341 164.403 7.47694 164.186 7.47603C163.97 7.47689 163.757 7.53405 163.569 7.64187H163.084V8.12532C162.976 8.31216 162.919 8.52341 162.917 8.73869C162.919 8.9543 162.976 9.16586 163.084 9.35318V9.83663H163.569C163.757 9.94338 163.97 10.0002 164.186 10.0017C164.403 10.0002 164.616 9.94338 164.804 9.83663H165.287V9.3554C165.395 9.16796 165.452 8.95586 165.453 8.7398C165.452 8.52411 165.395 8.3124 165.287 8.12532V7.64187Z" fill="white"/>
<path d="M167.116 9.35354V9.83477H167.599C167.787 9.94245 167.999 9.99984 168.216 10.0013C168.433 10.0001 168.647 9.94273 168.835 9.83477H169.318V9.35354C169.427 9.16608 169.484 8.95385 169.486 8.73758C169.484 8.52142 169.427 8.30931 169.318 8.12198V7.64075H168.835C168.647 7.53254 168.434 7.475 168.216 7.4738C167.999 7.47529 167.787 7.53282 167.599 7.64075H167.116V8.12198C167.008 8.30925 166.951 8.52084 166.949 8.73646C166.951 8.95208 167.008 9.16365 167.116 9.35095" fill="white"/>
<g filter="url(#filter30_d_2_9673)">
<path d="M153.749 25.5572H164.572V23.2839H156.033V20.1967H158.829V20.736H161.112V17.3826H158.829V17.9234H156.033V15.0261H158.829V15.5658H161.112V12.2135H158.828V12.7532H156.033V9.87586H158.828V10.3941V10.4141H161.111V7.04181H158.827V7.58153H156.032V4.49279H164.571V2.22104H153.749V25.5572Z" fill="#637E90"/>
</g>
<g filter="url(#filter31_d_2_9673)">
<path d="M176.37 4.49465V7.58227H173.575V7.04218H171.292V10.4145H173.575V9.87475H176.37V12.7525H173.575V12.2128H171.292V15.5654H173.575V15.0257H176.372V17.9231H173.575V17.3837H171.292V20.736H173.575V20.1967H176.372V23.2839H167.833V25.5568H178.656V2.22104H167.833V4.49391L176.37 4.49465Z" fill="#637E90"/>
</g>
</g>
<defs>
<filter id="filter0_d_2_9673" x="-2.65332" y="15.5568" width="16.4429" height="17.5619" filterUnits="userSpaceOnUse" color-interpolation-filters="sRGB">
<feFlood flood-opacity="0" result="BackgroundImageFix"/>
<feColorMatrix in="SourceAlpha" type="matrix" values="0 0 0 0 0 0 0 0 0 0 0 0 0 0 0 0 0 0 127 0" result="hardAlpha"/>
<feOffset dy="3"/>
<feGaussianBlur stdDeviation="3"/>
<feColorMatrix type="matrix" values="0 0 0 0 0 0 0 0 0 0 0 0 0 0 0 0 0 0 0.161 0"/>
<feBlend mode="normal" in2="BackgroundImageFix" result="effect1_dropShadow_2_9673"/>
<feBlend mode="normal" in="SourceGraphic" in2="effect1_dropShadow_2_9673" result="shape"/>
</filter>
<filter id="filter1_d_2_9673" x="3.03198" y="15.5568" width="16.9229" height="17.5619" filterUnits="userSpaceOnUse" color-interpolation-filters="sRGB">
<feFlood flood-opacity="0" result="BackgroundImageFix"/>
<feColorMatrix in="SourceAlpha" type="matrix" values="0 0 0 0 0 0 0 0 0 0 0 0 0 0 0 0 0 0 127 0" result="hardAlpha"/>
<feOffset dy="3"/>
<feGaussianBlur stdDeviation="3"/>
<feColorMatrix type="matrix" values="0 0 0 0 0 0 0 0 0 0 0 0 0 0 0 0 0 0 0.161 0"/>
<feBlend mode="normal" in2="BackgroundImageFix" result="effect1_dropShadow_2_9673"/>
<feBlend mode="normal" in="SourceGraphic" in2="effect1_dropShadow_2_9673" result="shape"/>
</filter>
<filter id="filter2_d_2_9673" x="9.78198" y="15.5568" width="16.2761" height="17.563" filterUnits="userSpaceOnUse" color-interpolation-filters="sRGB">
<feFlood flood-opacity="0" result="BackgroundImageFix"/>
<feColorMatrix in="SourceAlpha" type="matrix" values="0 0 0 0 0 0 0 0 0 0 0 0 0 0 0 0 0 0 127 0" result="hardAlpha"/>
<feOffset dy="3"/>
<feGaussianBlur stdDeviation="3"/>
<feColorMatrix type="matrix" values="0 0 0 0 0 0 0 0 0 0 0 0 0 0 0 0 0 0 0.161 0"/>
<feBlend mode="normal" in2="BackgroundImageFix" result="effect1_dropShadow_2_9673"/>
<feBlend mode="normal" in="SourceGraphic" in2="effect1_dropShadow_2_9673" result="shape"/>
</filter>
<filter id="filter3_d_2_9673" x="18.1221" y="15.4606" width="16.7173" height="17.7566" filterUnits="userSpaceOnUse" color-interpolation-filters="sRGB">
<feFlood flood-opacity="0" result="BackgroundImageFix"/>
<feColorMatrix in="SourceAlpha" type="matrix" values="0 0 0 0 0 0 0 0 0 0 0 0 0 0 0 0 0 0 127 0" result="hardAlpha"/>
<feOffset dy="3"/>
<feGaussianBlur stdDeviation="3"/>
<feColorMatrix type="matrix" values="0 0 0 0 0 0 0 0 0 0 0 0 0 0 0 0 0 0 0.161 0"/>
<feBlend mode="normal" in2="BackgroundImageFix" result="effect1_dropShadow_2_9673"/>
<feBlend mode="normal" in="SourceGraphic" in2="effect1_dropShadow_2_9673" result="shape"/>
</filter>
<filter id="filter4_d_2_9673" x="24.0896" y="15.4532" width="17.4873" height="17.7714" filterUnits="userSpaceOnUse" color-interpolation-filters="sRGB">
<feFlood flood-opacity="0" result="BackgroundImageFix"/>
<feColorMatrix in="SourceAlpha" type="matrix" values="0 0 0 0 0 0 0 0 0 0 0 0 0 0 0 0 0 0 127 0" result="hardAlpha"/>
<feOffset dy="3"/>
<feGaussianBlur stdDeviation="3"/>
<feColorMatrix type="matrix" values="0 0 0 0 0 0 0 0 0 0 0 0 0 0 0 0 0 0 0.161 0"/>
<feBlend mode="normal" in2="BackgroundImageFix" result="effect1_dropShadow_2_9673"/>
<feBlend mode="normal" in="SourceGraphic" in2="effect1_dropShadow_2_9673" result="shape"/>
</filter>
<filter id="filter5_d_2_9673" x="30.1934" y="15.5561" width="17.5996" height="17.5626" filterUnits="userSpaceOnUse" color-interpolation-filters="sRGB">
<feFlood flood-opacity="0" result="BackgroundImageFix"/>
<feColorMatrix in="SourceAlpha" type="matrix" values="0 0 0 0 0 0 0 0 0 0 0 0 0 0 0 0 0 0 127 0" result="hardAlpha"/>
<feOffset dy="3"/>
<feGaussianBlur stdDeviation="3"/>
<feColorMatrix type="matrix" values="0 0 0 0 0 0 0 0 0 0 0 0 0 0 0 0 0 0 0.161 0"/>
<feBlend mode="normal" in2="BackgroundImageFix" result="effect1_dropShadow_2_9673"/>
<feBlend mode="normal" in="SourceGraphic" in2="effect1_dropShadow_2_9673" result="shape"/>
</filter>
<filter id="filter6_d_2_9673" x="36.8784" y="15.5568" width="16.2739" height="17.563" filterUnits="userSpaceOnUse" color-interpolation-filters="sRGB">
<feFlood flood-opacity="0" result="BackgroundImageFix"/>
<feColorMatrix in="SourceAlpha" type="matrix" values="0 0 0 0 0 0 0 0 0 0 0 0 0 0 0 0 0 0 127 0" result="hardAlpha"/>
<feOffset dy="3"/>
<feGaussianBlur stdDeviation="3"/>
<feColorMatrix type="matrix" values="0 0 0 0 0 0 0 0 0 0 0 0 0 0 0 0 0 0 0.161 0"/>
<feBlend mode="normal" in2="BackgroundImageFix" result="effect1_dropShadow_2_9673"/>
<feBlend mode="normal" in="SourceGraphic" in2="effect1_dropShadow_2_9673" result="shape"/>
</filter>
<filter id="filter7_d_2_9673" x="42.8777" y="15.5568" width="16.9436" height="17.563" filterUnits="userSpaceOnUse" color-interpolation-filters="sRGB">
<feFlood flood-opacity="0" result="BackgroundImageFix"/>
<feColorMatrix in="SourceAlpha" type="matrix" values="0 0 0 0 0 0 0 0 0 0 0 0 0 0 0 0 0 0 127 0" result="hardAlpha"/>
<feOffset dy="3"/>
<feGaussianBlur stdDeviation="3"/>
<feColorMatrix type="matrix" values="0 0 0 0 0 0 0 0 0 0 0 0 0 0 0 0 0 0 0.161 0"/>
<feBlend mode="normal" in2="BackgroundImageFix" result="effect1_dropShadow_2_9673"/>
<feBlend mode="normal" in="SourceGraphic" in2="effect1_dropShadow_2_9673" result="shape"/>
</filter>
<filter id="filter8_d_2_9673" x="49.1919" y="15.5568" width="16.2773" height="17.563" filterUnits="userSpaceOnUse" color-interpolation-filters="sRGB">
<feFlood flood-opacity="0" result="BackgroundImageFix"/>
<feColorMatrix in="SourceAlpha" type="matrix" values="0 0 0 0 0 0 0 0 0 0 0 0 0 0 0 0 0 0 127 0" result="hardAlpha"/>
<feOffset dy="3"/>
<feGaussianBlur stdDeviation="3"/>
<feColorMatrix type="matrix" values="0 0 0 0 0 0 0 0 0 0 0 0 0 0 0 0 0 0 0.161 0"/>
<feBlend mode="normal" in2="BackgroundImageFix" result="effect1_dropShadow_2_9673"/>
<feBlend mode="normal" in="SourceGraphic" in2="effect1_dropShadow_2_9673" result="shape"/>
</filter>
<filter id="filter9_d_2_9673" x="55.1921" y="15.5568" width="12.8228" height="17.5619" filterUnits="userSpaceOnUse" color-interpolation-filters="sRGB">
<feFlood flood-opacity="0" result="BackgroundImageFix"/>
<feColorMatrix in="SourceAlpha" type="matrix" values="0 0 0 0 0 0 0 0 0 0 0 0 0 0 0 0 0 0 127 0" result="hardAlpha"/>
<feOffset dy="3"/>
<feGaussianBlur stdDeviation="3"/>
<feColorMatrix type="matrix" values="0 0 0 0 0 0 0 0 0 0 0 0 0 0 0 0 0 0 0.161 0"/>
<feBlend mode="normal" in2="BackgroundImageFix" result="effect1_dropShadow_2_9673"/>
<feBlend mode="normal" in="SourceGraphic" in2="effect1_dropShadow_2_9673" result="shape"/>
</filter>
<filter id="filter10_d_2_9673" x="57.5283" y="15.4609" width="17.114" height="17.7555" filterUnits="userSpaceOnUse" color-interpolation-filters="sRGB">
<feFlood flood-opacity="0" result="BackgroundImageFix"/>
<feColorMatrix in="SourceAlpha" type="matrix" values="0 0 0 0 0 0 0 0 0 0 0 0 0 0 0 0 0 0 127 0" result="hardAlpha"/>
<feOffset dy="3"/>
<feGaussianBlur stdDeviation="3"/>
<feColorMatrix type="matrix" values="0 0 0 0 0 0 0 0 0 0 0 0 0 0 0 0 0 0 0.161 0"/>
<feBlend mode="normal" in2="BackgroundImageFix" result="effect1_dropShadow_2_9673"/>
<feBlend mode="normal" in="SourceGraphic" in2="effect1_dropShadow_2_9673" result="shape"/>
</filter>
<filter id="filter11_d_2_9673" x="73.6404" y="15.5568" width="16.2676" height="17.5619" filterUnits="userSpaceOnUse" color-interpolation-filters="sRGB">
<feFlood flood-opacity="0" result="BackgroundImageFix"/>
<feColorMatrix in="SourceAlpha" type="matrix" values="0 0 0 0 0 0 0 0 0 0 0 0 0 0 0 0 0 0 127 0" result="hardAlpha"/>
<feOffset dy="3"/>
<feGaussianBlur stdDeviation="3"/>
<feColorMatrix type="matrix" values="0 0 0 0 0 0 0 0 0 0 0 0 0 0 0 0 0 0 0.161 0"/>
<feBlend mode="normal" in2="BackgroundImageFix" result="effect1_dropShadow_2_9673"/>
<feBlend mode="normal" in="SourceGraphic" in2="effect1_dropShadow_2_9673" result="shape"/>
</filter>
<filter id="filter12_d_2_9673" x="79.4492" y="15.5568" width="16.7937" height="17.6585" filterUnits="userSpaceOnUse" color-interpolation-filters="sRGB">
<feFlood flood-opacity="0" result="BackgroundImageFix"/>
<feColorMatrix in="SourceAlpha" type="matrix" values="0 0 0 0 0 0 0 0 0 0 0 0 0 0 0 0 0 0 127 0" result="hardAlpha"/>
<feOffset dy="3"/>
<feGaussianBlur stdDeviation="3"/>
<feColorMatrix type="matrix" values="0 0 0 0 0 0 0 0 0 0 0 0 0 0 0 0 0 0 0.161 0"/>
<feBlend mode="normal" in2="BackgroundImageFix" result="effect1_dropShadow_2_9673"/>
<feBlend mode="normal" in="SourceGraphic" in2="effect1_dropShadow_2_9673" result="shape"/>
</filter>
<filter id="filter13_d_2_9673" x="86.1631" y="15.5568" width="16.7844" height="17.5622" filterUnits="userSpaceOnUse" color-interpolation-filters="sRGB">
<feFlood flood-opacity="0" result="BackgroundImageFix"/>
<feColorMatrix in="SourceAlpha" type="matrix" values="0 0 0 0 0 0 0 0 0 0 0 0 0 0 0 0 0 0 127 0" result="hardAlpha"/>
<feOffset dy="3"/>
<feGaussianBlur stdDeviation="3"/>
<feColorMatrix type="matrix" values="0 0 0 0 0 0 0 0 0 0 0 0 0 0 0 0 0 0 0.161 0"/>
<feBlend mode="normal" in2="BackgroundImageFix" result="effect1_dropShadow_2_9673"/>
<feBlend mode="normal" in="SourceGraphic" in2="effect1_dropShadow_2_9673" result="shape"/>
</filter>
<filter id="filter14_d_2_9673" x="92.8325" y="15.5564" width="16.8767" height="17.5619" filterUnits="userSpaceOnUse" color-interpolation-filters="sRGB">
<feFlood flood-opacity="0" result="BackgroundImageFix"/>
<feColorMatrix in="SourceAlpha" type="matrix" values="0 0 0 0 0 0 0 0 0 0 0 0 0 0 0 0 0 0 127 0" result="hardAlpha"/>
<feOffset dy="3"/>
<feGaussianBlur stdDeviation="3"/>
<feColorMatrix type="matrix" values="0 0 0 0 0 0 0 0 0 0 0 0 0 0 0 0 0 0 0.161 0"/>
<feBlend mode="normal" in2="BackgroundImageFix" result="effect1_dropShadow_2_9673"/>
<feBlend mode="normal" in="SourceGraphic" in2="effect1_dropShadow_2_9673" result="shape"/>
</filter>
<filter id="filter15_d_2_9673" x="101.53" y="15.4532" width="17.4875" height="17.7714" filterUnits="userSpaceOnUse" color-interpolation-filters="sRGB">
<feFlood flood-opacity="0" result="BackgroundImageFix"/>
<feColorMatrix in="SourceAlpha" type="matrix" values="0 0 0 0 0 0 0 0 0 0 0 0 0 0 0 0 0 0 127 0" result="hardAlpha"/>
<feOffset dy="3"/>
<feGaussianBlur stdDeviation="3"/>
<feColorMatrix type="matrix" values="0 0 0 0 0 0 0 0 0 0 0 0 0 0 0 0 0 0 0.161 0"/>
<feBlend mode="normal" in2="BackgroundImageFix" result="effect1_dropShadow_2_9673"/>
<feBlend mode="normal" in="SourceGraphic" in2="effect1_dropShadow_2_9673" result="shape"/>
</filter>
<filter id="filter16_d_2_9673" x="108.493" y="15.5568" width="16.2683" height="17.5619" filterUnits="userSpaceOnUse" color-interpolation-filters="sRGB">
<feFlood flood-opacity="0" result="BackgroundImageFix"/>
<feColorMatrix in="SourceAlpha" type="matrix" values="0 0 0 0 0 0 0 0 0 0 0 0 0 0 0 0 0 0 127 0" result="hardAlpha"/>
<feOffset dy="3"/>
<feGaussianBlur stdDeviation="3"/>
<feColorMatrix type="matrix" values="0 0 0 0 0 0 0 0 0 0 0 0 0 0 0 0 0 0 0.161 0"/>
<feBlend mode="normal" in2="BackgroundImageFix" result="effect1_dropShadow_2_9673"/>
<feBlend mode="normal" in="SourceGraphic" in2="effect1_dropShadow_2_9673" result="shape"/>
</filter>
<filter id="filter17_d_2_9673" x="116.89" y="15.5568" width="16.2776" height="17.563" filterUnits="userSpaceOnUse" color-interpolation-filters="sRGB">
<feFlood flood-opacity="0" result="BackgroundImageFix"/>
<feColorMatrix in="SourceAlpha" type="matrix" values="0 0 0 0 0 0 0 0 0 0 0 0 0 0 0 0 0 0 127 0" result="hardAlpha"/>
<feOffset dy="3"/>
<feGaussianBlur stdDeviation="3"/>
<feColorMatrix type="matrix" values="0 0 0 0 0 0 0 0 0 0 0 0 0 0 0 0 0 0 0.161 0"/>
<feBlend mode="normal" in2="BackgroundImageFix" result="effect1_dropShadow_2_9673"/>
<feBlend mode="normal" in="SourceGraphic" in2="effect1_dropShadow_2_9673" result="shape"/>
</filter>
<filter id="filter18_d_2_9673" x="122.478" y="15.4609" width="17.1155" height="17.7566" filterUnits="userSpaceOnUse" color-interpolation-filters="sRGB">
<feFlood flood-opacity="0" result="BackgroundImageFix"/>
<feColorMatrix in="SourceAlpha" type="matrix" values="0 0 0 0 0 0 0 0 0 0 0 0 0 0 0 0 0 0 127 0" result="hardAlpha"/>
<feOffset dy="3"/>
<feGaussianBlur stdDeviation="3"/>
<feColorMatrix type="matrix" values="0 0 0 0 0 0 0 0 0 0 0 0 0 0 0 0 0 0 0.161 0"/>
<feBlend mode="normal" in2="BackgroundImageFix" result="effect1_dropShadow_2_9673"/>
<feBlend mode="normal" in="SourceGraphic" in2="effect1_dropShadow_2_9673" result="shape"/>
</filter>
<filter id="filter19_d_2_9673" x="128.165" y="15.5568" width="17.1648" height="17.5619" filterUnits="userSpaceOnUse" color-interpolation-filters="sRGB">
<feFlood flood-opacity="0" result="BackgroundImageFix"/>
<feColorMatrix in="SourceAlpha" type="matrix" values="0 0 0 0 0 0 0 0 0 0 0 0 0 0 0 0 0 0 127 0" result="hardAlpha"/>
<feOffset dy="3"/>
<feGaussianBlur stdDeviation="3"/>
<feColorMatrix type="matrix" values="0 0 0 0 0 0 0 0 0 0 0 0 0 0 0 0 0 0 0.161 0"/>
<feBlend mode="normal" in2="BackgroundImageFix" result="effect1_dropShadow_2_9673"/>
<feBlend mode="normal" in="SourceGraphic" in2="effect1_dropShadow_2_9673" result="shape"/>
</filter>
<filter id="filter20_d_2_9673" x="134.298" y="15.5568" width="16.5427" height="17.5619" filterUnits="userSpaceOnUse" color-interpolation-filters="sRGB">
<feFlood flood-opacity="0" result="BackgroundImageFix"/>
<feColorMatrix in="SourceAlpha" type="matrix" values="0 0 0 0 0 0 0 0 0 0 0 0 0 0 0 0 0 0 127 0" result="hardAlpha"/>
<feOffset dy="3"/>
<feGaussianBlur stdDeviation="3"/>
<feColorMatrix type="matrix" values="0 0 0 0 0 0 0 0 0 0 0 0 0 0 0 0 0 0 0.161 0"/>
<feBlend mode="normal" in2="BackgroundImageFix" result="effect1_dropShadow_2_9673"/>
<feBlend mode="normal" in="SourceGraphic" in2="effect1_dropShadow_2_9673" result="shape"/>
</filter>
<filter id="filter21_d_2_9673" x="139.587" y="15.5568" width="16.4431" height="17.5619" filterUnits="userSpaceOnUse" color-interpolation-filters="sRGB">
<feFlood flood-opacity="0" result="BackgroundImageFix"/>
<feColorMatrix in="SourceAlpha" type="matrix" values="0 0 0 0 0 0 0 0 0 0 0 0 0 0 0 0 0 0 127 0" result="hardAlpha"/>
<feOffset dy="3"/>
<feGaussianBlur stdDeviation="3"/>
<feColorMatrix type="matrix" values="0 0 0 0 0 0 0 0 0 0 0 0 0 0 0 0 0 0 0.161 0"/>
<feBlend mode="normal" in2="BackgroundImageFix" result="effect1_dropShadow_2_9673"/>
<feBlend mode="normal" in="SourceGraphic" in2="effect1_dropShadow_2_9673" result="shape"/>
</filter>
<filter id="filter22_d_2_9673" x="116.556" y="3.05383" width="39.3606" height="18.8993" filterUnits="userSpaceOnUse" color-interpolation-filters="sRGB">
<feFlood flood-opacity="0" result="BackgroundImageFix"/>
<feColorMatrix in="SourceAlpha" type="matrix" values="0 0 0 0 0 0 0 0 0 0 0 0 0 0 0 0 0 0 127 0" result="hardAlpha"/>
<feOffset dy="3"/>
<feGaussianBlur stdDeviation="3"/>
<feColorMatrix type="matrix" values="0 0 0 0 0 0 0 0 0 0 0 0 0 0 0 0 0 0 0.161 0"/>
<feBlend mode="normal" in2="BackgroundImageFix" result="effect1_dropShadow_2_9673"/>
<feBlend mode="normal" in="SourceGraphic" in2="effect1_dropShadow_2_9673" result="shape"/>
</filter>
<filter id="filter23_d_2_9673" x="103.819" y="3.14841" width="23.9932" height="20.8144" filterUnits="userSpaceOnUse" color-interpolation-filters="sRGB">
<feFlood flood-opacity="0" result="BackgroundImageFix"/>
<feColorMatrix in="SourceAlpha" type="matrix" values="0 0 0 0 0 0 0 0 0 0 0 0 0 0 0 0 0 0 127 0" result="hardAlpha"/>
<feOffset dy="3"/>
<feGaussianBlur stdDeviation="3"/>
<feColorMatrix type="matrix" values="0 0 0 0 0 0 0 0 0 0 0 0 0 0 0 0 0 0 0.161 0"/>
<feBlend mode="normal" in2="BackgroundImageFix" result="effect1_dropShadow_2_9673"/>
<feBlend mode="normal" in="SourceGraphic" in2="effect1_dropShadow_2_9673" result="shape"/>
</filter>
<filter id="filter24_d_2_9673" x="95.5439" y="3.02013" width="24.2334" height="18.8839" filterUnits="userSpaceOnUse" color-interpolation-filters="sRGB">
<feFlood flood-opacity="0" result="BackgroundImageFix"/>
<feColorMatrix in="SourceAlpha" type="matrix" values="0 0 0 0 0 0 0 0 0 0 0 0 0 0 0 0 0 0 127 0" result="hardAlpha"/>
<feOffset dy="3"/>
<feGaussianBlur stdDeviation="3"/>
<feColorMatrix type="matrix" values="0 0 0 0 0 0 0 0 0 0 0 0 0 0 0 0 0 0 0.161 0"/>
<feBlend mode="normal" in2="BackgroundImageFix" result="effect1_dropShadow_2_9673"/>
<feBlend mode="normal" in="SourceGraphic" in2="effect1_dropShadow_2_9673" result="shape"/>
</filter>
<filter id="filter25_d_2_9673" x="57.6311" y="3.01723" width="47.0979" height="20.9515" filterUnits="userSpaceOnUse" color-interpolation-filters="sRGB">
<feFlood flood-opacity="0" result="BackgroundImageFix"/>
<feColorMatrix in="SourceAlpha" type="matrix" values="0 0 0 0 0 0 0 0 0 0 0 0 0 0 0 0 0 0 127 0" result="hardAlpha"/>
<feOffset dy="3"/>
<feGaussianBlur stdDeviation="3"/>
<feColorMatrix type="matrix" values="0 0 0 0 0 0 0 0 0 0 0 0 0 0 0 0 0 0 0.161 0"/>
<feBlend mode="normal" in2="BackgroundImageFix" result="effect1_dropShadow_2_9673"/>
<feBlend mode="normal" in="SourceGraphic" in2="effect1_dropShadow_2_9673" result="shape"/>
</filter>
<filter id="filter26_d_2_9673" x="-2.53027" y="2.90057" width="30.2605" height="18.8656" filterUnits="userSpaceOnUse" color-interpolation-filters="sRGB">
<feFlood flood-opacity="0" result="BackgroundImageFix"/>
<feColorMatrix in="SourceAlpha" type="matrix" values="0 0 0 0 0 0 0 0 0 0 0 0 0 0 0 0 0 0 127 0" result="hardAlpha"/>
<feOffset dy="3"/>
<feGaussianBlur stdDeviation="3"/>
<feColorMatrix type="matrix" values="0 0 0 0 0 0 0 0 0 0 0 0 0 0 0 0 0 0 0.161 0"/>
<feBlend mode="normal" in2="BackgroundImageFix" result="effect1_dropShadow_2_9673"/>
<feBlend mode="normal" in="SourceGraphic" in2="effect1_dropShadow_2_9673" result="shape"/>
</filter>
<filter id="filter27_d_2_9673" x="-0.629639" y="10.7105" width="20.5923" height="12.7004" filterUnits="userSpaceOnUse" color-interpolation-filters="sRGB">
<feFlood flood-opacity="0" result="BackgroundImageFix"/>
<feColorMatrix in="SourceAlpha" type="matrix" values="0 0 0 0 0 0 0 0 0 0 0 0 0 0 0 0 0 0 127 0" result="hardAlpha"/>
<feOffset dy="3"/>
<feGaussianBlur stdDeviation="3"/>
<feColorMatrix type="matrix" values="0 0 0 0 0 0 0 0 0 0 0 0 0 0 0 0 0 0 0.161 0"/>
<feBlend mode="normal" in2="BackgroundImageFix" result="effect1_dropShadow_2_9673"/>
<feBlend mode="normal" in="SourceGraphic" in2="effect1_dropShadow_2_9673" result="shape"/>
</filter>
<filter id="filter28_d_2_9673" x="24.1458" y="1.57275" width="42.0115" height="20.1939" filterUnits="userSpaceOnUse" color-interpolation-filters="sRGB">
<feFlood flood-opacity="0" result="BackgroundImageFix"/>
<feColorMatrix in="SourceAlpha" type="matrix" values="0 0 0 0 0 0 0 0 0 0 0 0 0 0 0 0 0 0 127 0" result="hardAlpha"/>
<feOffset dy="3"/>
<feGaussianBlur stdDeviation="3"/>
<feColorMatrix type="matrix" values="0 0 0 0 0 0 0 0 0 0 0 0 0 0 0 0 0 0 0.161 0"/>
<feBlend mode="normal" in2="BackgroundImageFix" result="effect1_dropShadow_2_9673"/>
<feBlend mode="normal" in="SourceGraphic" in2="effect1_dropShadow_2_9673" result="shape"/>
</filter>
<filter id="filter29_d_2_9673" x="16.8403" y="2.90131" width="18.2634" height="18.8738" filterUnits="userSpaceOnUse" color-interpolation-filters="sRGB">
<feFlood flood-opacity="0" result="BackgroundImageFix"/>
<feColorMatrix in="SourceAlpha" type="matrix" values="0 0 0 0 0 0 0 0 0 0 0 0 0 0 0 0 0 0 127 0" result="hardAlpha"/>
<feOffset dy="3"/>
<feGaussianBlur stdDeviation="3"/>
<feColorMatrix type="matrix" values="0 0 0 0 0 0 0 0 0 0 0 0 0 0 0 0 0 0 0.161 0"/>
<feBlend mode="normal" in2="BackgroundImageFix" result="effect1_dropShadow_2_9673"/>
<feBlend mode="normal" in="SourceGraphic" in2="effect1_dropShadow_2_9673" result="shape"/>
</filter>
<filter id="filter30_d_2_9673" x="147.749" y="-0.778961" width="22.8228" height="35.3361" filterUnits="userSpaceOnUse" color-interpolation-filters="sRGB">
<feFlood flood-opacity="0" result="BackgroundImageFix"/>
<feColorMatrix in="SourceAlpha" type="matrix" values="0 0 0 0 0 0 0 0 0 0 0 0 0 0 0 0 0 0 127 0" result="hardAlpha"/>
<feOffset dy="3"/>
<feGaussianBlur stdDeviation="3"/>
<feColorMatrix type="matrix" values="0 0 0 0 0 0 0 0 0 0 0 0 0 0 0 0 0 0 0.161 0"/>
<feBlend mode="normal" in2="BackgroundImageFix" result="effect1_dropShadow_2_9673"/>
<feBlend mode="normal" in="SourceGraphic" in2="effect1_dropShadow_2_9673" result="shape"/>
</filter>
<filter id="filter31_d_2_9673" x="161.833" y="-0.778961" width="22.8235" height="35.3358" filterUnits="userSpaceOnUse" color-interpolation-filters="sRGB">
<feFlood flood-opacity="0" result="BackgroundImageFix"/>
<feColorMatrix in="SourceAlpha" type="matrix" values="0 0 0 0 0 0 0 0 0 0 0 0 0 0 0 0 0 0 127 0" result="hardAlpha"/>
<feOffset dy="3"/>
<feGaussianBlur stdDeviation="3"/>
<feColorMatrix type="matrix" values="0 0 0 0 0 0 0 0 0 0 0 0 0 0 0 0 0 0 0.161 0"/>
<feBlend mode="normal" in2="BackgroundImageFix" result="effect1_dropShadow_2_9673"/>
<feBlend mode="normal" in="SourceGraphic" in2="effect1_dropShadow_2_9673" result="shape"/>
</filter>
<clipPath id="clip0_2_9673">
<rect width="182" height="30" fill="white"/>
</clipPath>
</defs>
</svg>
